<svg width="49" height="49" viewBox="0 0 49 49" fill="none" xmlns="http://www.w3.org/2000/svg">
<circle cx="24.5" cy="24.5" r="24.5" fill="#FAF4EB"/>
<path fill-rule="evenodd" clip-rule="evenodd" d="M15.528 28.5303L24 39L32.472 28.5303C34.1085 26.508 35 23.9953 35 21.4054V20.875C35 14.8689 30.0751 10 24 10C17.9249 10 13 14.8689 13 20.875V21.4054C13 23.9953 13.8916 26.508 15.528 28.5303ZM24 24.5C26.025 24.5 27.6667 22.877 27.6667 20.875C27.6667 18.873 26.025 17.25 24 17.25C21.975 17.25 20.3333 18.873 20.3333 20.875C20.3333 22.877 21.975 24.5 24 24.5Z" fill="#E2B87F"/>
</svg>
