<svg width="49" height="49" viewBox="0 0 49 49" fill="none" xmlns="http://www.w3.org/2000/svg">
<circle cx="24.5" cy="24.5" r="24.5" fill="#F0E9DE"/>
<path d="M17.975 23.5C19.9737 23.5 21.6 21.9111 21.6 19.9583C21.6 18.0056 19.9737 16.4167 17.975 16.4167C15.9763 16.4167 14.35 18.0056 14.35 19.9583C14.35 21.9111 15.9763 23.5 17.975 23.5ZM33.925 17.8333H23.775C23.3744 17.8333 23.05 18.1503 23.05 18.5417V24.9167H12.9V15.7083C12.9 15.317 12.5756 15 12.175 15H10.725C10.3244 15 10 15.317 10 15.7083V31.2917C10 31.683 10.3244 32 10.725 32H12.175C12.5756 32 12.9 31.683 12.9 31.2917V29.1667H36.1V31.2917C36.1 31.683 36.4244 32 36.825 32H38.275C38.6756 32 39 31.683 39 31.2917V22.7917C39 20.0531 36.728 17.8333 33.925 17.8333Z" fill="#E07B39"/>
</svg>
