<svg preserveAspectRatio="none" width="100%" height="100%" overflow="visible" style="display: block;" viewBox="0 0 32.1187 36.2308" fill="none" xmlns="http://www.w3.org/2000/svg">
<g id="layer1">
<path id="path3" d="M7.71737 30.311C4.61183 27.0552 1.6183 23.2009 1.06512 21.746C-2.93177 11.2333 4.81383 0 16.0593 0C27.3048 0 35.0505 11.2333 31.0536 21.746C30.5004 23.2009 27.5069 27.0552 24.4014 30.311C20.2372 34.6768 18.0473 36.2308 16.0593 36.2308C14.0714 36.2308 11.8816 34.6768 7.71737 30.311ZM22.7571 27.5633C28.2628 21.6474 29.7715 17.7498 28.6074 12.4495C27.2424 6.23494 19.1134 1.49451 12.8846 3.2809C6.10269 5.22592 2.16575 11.6539 3.47665 18.6415C4.14519 22.2052 13.6544 33.2308 16.0593 33.2308C16.8422 33.2308 19.8562 30.6804 22.7571 27.5633ZM13.3747 22.2145C8.96473 20.4565 7.72322 14.5669 11.0593 11.2307C15.1443 7.14586 23.0593 10.0409 23.0593 15.62C23.0593 20.3731 17.7775 23.9696 13.3747 22.2145ZM19.5746 17.1828C19.9321 16.0564 19.6823 14.4814 19.0195 13.6828C16.3565 10.474 11.2849 13.2152 12.5442 17.1828C13.4507 20.039 18.6681 20.039 19.5746 17.1828Z" fill="var(--fill-0, #E07B39)"/>
</g>
</svg>
