<svg preserveAspectRatio="none" width="100%" height="100%" overflow="visible" style="display: block;" viewBox="0 0 32.6552 34.7285" fill="none" xmlns="http://www.w3.org/2000/svg">
<g id="layer1">
<path id="path3" d="M22.5548 32.5479C20.6949 30.5489 19.8471 28.1335 21.0053 28.1335C21.2688 28.1335 22.3068 28.6521 23.3118 29.2859C24.8934 30.2833 25.5564 30.0299 28.2418 27.4016C31.5758 24.1386 32.661 23.6804 32.6451 25.5426C32.637 26.502 25.6265 34.7285 24.8171 34.7285C24.6886 34.7285 23.6705 33.7472 22.5548 32.5479ZM11.6625 32.3077C3.87975 28.2287 0.0514817 21.5121 0.0204536 11.8817L0 5.52236L3.03227 5.50095C5.90805 5.47958 11.664 3.16181 15.1067 0.635202C16.3893 -0.306063 17.0073 -0.228324 18.4064 1.05026C20.8765 3.30753 26.5314 5.52165 29.8263 5.52165H32.6552V11.5685C32.6552 17.9283 32.0743 20.5958 30.6894 20.5958C30.2311 20.5958 29.8562 17.8773 29.8562 14.5547V8.5137L26.3574 7.89598C24.4331 7.55628 21.3941 6.50194 19.6042 5.55316C16.4575 3.88521 16.2398 3.88466 13.0298 5.53887C11.2038 6.47953 8.1084 7.55256 6.15117 7.92331L2.59256 8.59748L2.98893 14.1307C3.46577 20.7874 6.91932 26.3404 12.5343 29.4788C18.6075 32.8734 17.7919 35.5201 11.6625 32.3077Z" fill="var(--fill-0, #E07B39)"/>
</g>
</svg>
