<svg preserveAspectRatio="none" width="100%" height="100%" overflow="visible" style="display: block;" viewBox="0 0 21 35.5002" fill="none" xmlns="http://www.w3.org/2000/svg">
<g id="layer1">
<path id="path3" d="M9 32.9991C9 31.2701 8.45186 30.4991 7.22253 30.4991C4.52936 30.4991 1.00006 27.6309 1.00006 25.4424C1.00006 23.0367 2.57351 22.9144 3.86365 25.2198C5.25882 27.7128 15.7796 27.7356 17.3703 25.25C19.45 21.999 16.9881 20.0362 10.4 19.6927C3.62378 19.3394 6.10352e-05 16.8332 6.10352e-05 12.5C6.10352e-05 9.36887 3.72964 5.49997 6.74805 5.49997C8.31644 5.49997 8.94938 4.7853 9.18359 2.74998C9.35745 1.23749 9.95 0 10.5 0C11.05 0 11.6424 1.23749 11.8164 2.74998C12.0583 4.8528 12.6691 5.49997 14.4114 5.49997C16.7755 5.49997 20 8.28616 20 10.3288C20 11.9727 18.4822 11.7859 16.9626 9.95494C15.1227 7.73798 5.12562 8.33329 3.6087 10.7501C1.56296 14.0095 4.02234 15.9644 10.6 16.3073C17.3763 16.6607 21 19.1669 21 23.5001C21 26.6598 17.2615 30.5001 14.1855 30.5001C12.521 30.5001 12 31.096 12 33.0001C12 34.5556 11.4333 35.5001 10.5 35.5001C9.56668 35.5001 9 34.5547 9 32.9991Z" fill="var(--fill-0, #E07B39)"/>
</g>
</svg>
