<svg preserveAspectRatio="none" width="100%" height="100%" overflow="visible" style="display: block;" viewBox="0 0 32.7407 37.4254" fill="none" xmlns="http://www.w3.org/2000/svg">
<g id="layer1">
<path id="path3" d="M15.3537 35.8624C15.3537 35.0175 16.9154 34.2847 19.4364 33.9465C24.6238 33.2508 25.2726 32.5627 22.5434 30.6511C20.8089 29.4362 20.3537 28.122 20.3537 24.329C20.3537 18.802 22.4028 16.2308 26.8075 16.2308C29.4232 16.2308 29.5635 16.021 28.9814 12.9808C28.6243 11.1158 26.8727 8.3458 24.8711 6.48079C21.8945 3.7073 20.6457 3.23079 16.3537 3.23079C12.0617 3.23079 10.813 3.7073 7.83634 6.48079C5.83476 8.3458 4.08313 11.1158 3.72602 12.9808C3.13688 16.0576 3.26201 16.2308 6.07377 16.2308C10.2718 16.2308 12.3537 18.9732 12.3537 24.5028C12.3537 29.5318 10.0313 32.2307 5.70384 32.2307C1.5946 32.2307 -0.186077 28.407 0.0152998 20.0153C0.328661 6.95621 6.007 0 16.3537 0C26.7222 0 32.3787 6.95181 32.6938 20.0817C32.8657 27.2458 32.6964 27.9099 29.8808 31.1166C25.3681 36.2563 15.3537 39.5278 15.3537 35.8624ZM9.16123 23.9808C8.88741 20.1961 8.58002 19.7308 6.35374 19.7308C4.12747 19.7308 3.82008 20.1961 3.54624 23.9808C3.24555 28.137 3.30745 28.2308 6.35374 28.2308C9.40001 28.2308 9.46195 28.137 9.16123 23.9808ZM29.1613 23.9808C28.8874 20.1961 28.58 19.7308 26.3537 19.7308C24.1275 19.7308 23.8201 20.1961 23.5463 23.9808C23.2456 28.137 23.3075 28.2308 26.3537 28.2308C29.4 28.2308 29.462 28.137 29.1613 23.9808Z" fill="var(--fill-0, #E07B39)"/>
</g>
</svg>
